<svg xmlns="http://www.w3.org/2000/svg" width="283.87" height="112.102"><defs><clipPath id="a"><path fill="#ff642b" d="M0 0h73.885v73.792H0z" data-name="Rectangle 532"/></clipPath></defs><g data-name="Component 2 – 3"><path fill="#fff" stroke="rgba(0,0,0,0)" stroke-miterlimit="10" d="M269.388 111.488h-22.667V56.729h-27.089v54.758h-22.663V91.615a45.076 45.076 0 0 0 0-34.258v-.628h-.265a45.031 45.031 0 0 0-15.22-18.84h15.484V32c0-10.567 2.631-18.633 7.819-23.975a23.283 23.283 0 0 1 9.009-5.688A35.024 35.024 0 0 1 225.526.5a62.914 62.914 0 0 1 10.152.883v19.429h-6.33c-3.664 0-6.21 1.053-7.782 3.22-1.3 1.8-1.936 4.4-1.936 7.968v5.89h27.089V15.07h22.669v22.82h13.982v18.84h-13.982v54.758zm-178.476 0c-8.967 0-16.551-2.3-21.932-6.653a21.543 21.543 0 0 1-6-7.551 22.429 22.429 0 0 1-2.102-9.684h20.4a7.4 7.4 0 0 0 2.882 5.749c1.809 1.379 4.365 2.079 7.6 2.079 6.3 0 9.777-2.134 9.777-6.008a4.249 4.249 0 0 0-1.2-3.092 9.919 9.919 0 0 0-5.079-2.361l-12.866-2.794C75.625 79.7 71.052 77.549 68 74.4a15.506 15.506 0 0 1-3.567-5.876 24.434 24.434 0 0 1-1.184-8.024 20.383 20.383 0 0 1 8.313-16.909 28.322 28.322 0 0 1 9.252-4.47 42.178 42.178 0 0 1 11.635-1.536 36.984 36.984 0 0 1 8.23.893 29.374 29.374 0 0 1 7.058 2.565 24.085 24.085 0 0 1 5.661 4.066 21.468 21.468 0 0 1 4.041 5.391 44.721 44.721 0 0 0-4.932 10.69H99.578a7.928 7.928 0 0 0-2.18-5.82 8.234 8.234 0 0 0-5.927-2.139c-4.836 0-7.961 2.468-7.961 6.288a4.654 4.654 0 0 0 1.939 3.86 14.346 14.346 0 0 0 5.606 2.288l12.992 2.791a38.318 38.318 0 0 1 6.637 2.03 45.802 45.802 0 0 0-.176 4 44.688 44.688 0 0 0 7.744 25.222 22.006 22.006 0 0 1-4.623 5.007 27.319 27.319 0 0 1-6.244 3.7 41.49 41.49 0 0 1-16.473 3.07z" data-name="Subtraction 38"/><path fill="#fff" stroke="rgba(0,0,0,0)" stroke-miterlimit="10" d="M.5 74.721c0-21.798 14.668-37.025 35.763-37.025 21.938 0 35.631 14.388 35.631 37.161l9.457 5.453h-9.457l-50.718.279c1.258 9.218 6.428 13.55 15.929 13.55 8.1 0 13.829-2.934 15.366-7.965h28.88a9.461 9.461 0 0 0 0 2c-.055.268-9.587.054-9.7.5-3.451 14.012-16.821 22.928-34.969 22.928C15.587 111.602.5 96.235.5 74.721m20.956-7.406h29.06c0-7.406-5.449-12.157-14.109-12.157-8.524 0-13.274 3.773-14.951 12.157" data-name="Path 728"/><g data-name="Group 2177"><g fill="#ff642b" clip-path="url(#a)" data-name="Group 2172" transform="translate(118.655 37.696)"><path d="M50.226 53.773h-4.759a2.019 2.019 0 0 1-2.014-2.014v-9.916a2.019 2.019 0 0 0-2.015-2.014h-9.133a2.019 2.019 0 0 0-2.014 2.014v9.917a2.019 2.019 0 0 1-2.014 2.014h-4.455a4.622 4.622 0 0 0-3.468 1.392l-8.86 8.455a36.913 36.913 0 0 0 50.976-.078l-8.774-8.377a4.543 4.543 0 0 0-3.471-1.392" data-name="Path 719"/><path d="M18.322 48.54V32.928a3.125 3.125 0 0 0-1.78-2.958L2.815 22.704a36.933 36.933 0 0 0 5.461 37.44l8.587-8.2a4.431 4.431 0 0 0 1.458-3.405" data-name="Path 720"/><path d="m40.982 19.054 10.578 6.683a3.446 3.446 0 0 0 3.483.132l13.944-7.382A36.917 36.917 0 0 0 39.275.002v15.962a3.6 3.6 0 0 0 1.7 3.091" data-name="Path 721"/><path d="m22.35 25.704 10.5-6.686a3.458 3.458 0 0 0 1.7-3.094V.004a36.928 36.928 0 0 0-29.63 18.45l13.956 7.39a3.473 3.473 0 0 0 3.474-.14" data-name="Path 722"/><path d="m71.079 22.735-13.727 7.27a3.256 3.256 0 0 0-1.78 2.954v15.437a4.607 4.607 0 0 0 1.454 3.405l8.65 8.257a36.772 36.772 0 0 0 8.206-23.2 36.788 36.788 0 0 0-2.803-14.123" data-name="Path 723"/></g></g></g></svg>